<svg data-v-0dd9719b="" version="1.0" xmlns="http://www.w3.org/2000/svg" xmlns:xlink="http://www.w3.org/1999/xlink" width="100%" height="100%" viewBox="0 0 340.000000 250.000000" preserveAspectRatio="xMidYMid meet" color-interpolation-filters="sRGB" style="margin: auto;"> <rect data-v-0dd9719b="" x="0" y="0" width="100%" height="100%" fill="#fff" fill-opacity="1" class="background"></rect> <rect data-v-0dd9719b="" x="0" y="0" width="100%" height="100%" fill="url(#watermark)" fill-opacity="1" class="watermarklayer"></rect> <g data-v-0dd9719b="" fill="#333" class="icon-text-wrapper icon-svg-group iconsvg" transform="translate(47.81999969482422,97.64146614074707)"><g class="iconsvg-imagesvg" transform="translate(0,0)"><g><rect fill="#333" fill-opacity="0" stroke-width="2" x="0" y="0" width="60" height="54.71706716519995" class="image-rect"></rect> <svg x="0" y="0" width="60" height="54.71706716519995" filtersec="colorsb1729132597" class="image-svg-svg primary" style="overflow: visible;"><svg xmlns="http://www.w3.org/2000/svg" viewBox="0.007376670837402344 0.017479896545410156 109.63544464111328 99.98246765136719"><g fill-rule="evenodd"><path d="M46.12 21.84c-2.94-8.25-7.27-15.43-1.06-17.59C53.49 1.3 60.41-3 62.64 3.15c3 8.39 7.23 15.37 1.06 17.6L52.39 24.8c-10.91 3.9-8.55 23-5.62 31.19C54.16 76.67 23 87.73 15.59 67.14A16.58 16.58 0 0 1 25.61 46c3.09 0 23.98-14.41 20.51-24.16z" fill="#104e70"></path><path d="M83.51 43C82 51 84.92 71.28 93.82 73c8.39 1.62 17 1.62 15.69 8-1.83 9.17-1.67 16.89-8 15.7-8.37-1.59-16.91-1.65-15.69-8l2.28-11.82c2.18-11.39-15.46-19.05-24-20.7A16.53 16.53 0 0 1 51 36.77C55.1 15.24 87.68 21.51 83.51 43z" fill="#2491eb"></path><path d="M25.67 89.11c-6.16 7.08-10 13.8-14.81 9.58-7-6.13-13.74-9.91-9.57-14.79 4.8-5.62 9.76-14 14.8-9.58l9.08 7.9c8.74 7.57 24.23-3.87 29.9-10.44a16.58 16.58 0 0 1 23.38-1.65c16.57 14.44-5.21 39.37-21.72 25 2.5.04-23.48-14.74-31.06-6.02z" fill="#85c4f5"></path></g></svg></svg> <!----></g></g> <g transform="translate(67,2.7194690704345703)"><g data-gra="path-name" fill-rule="" class="tp-name iconsvg-namesvg" transform="translate(0,0)"><g transform="scale(1)"><g><path d="M20.21-9.46L20.21-0.42 26.54-0.42 26.54-9.46 20.21-9.46ZM20.43-10.48L26.16-10.48 28.3-12.83 32.77-9.46Q32.31-8.93 31.32-8.68L31.32-8.68 31.32 1.76Q31.25 2 29.85 2.43 28.44 2.85 27.35 2.85L27.35 2.85 26.54 2.85 26.54 0.56 20.21 0.56 20.21 1.86Q20.21 2.07 19.62 2.43 19.02 2.78 18 3.08 16.98 3.38 16.07 3.38L16.07 3.38 15.33 3.38 15.33-12.45 20.43-10.48ZM17.09-16.28L24.08-16.28 26.33-19.44Q28.83-17.3 30.3-15.86L30.3-15.86Q30.13-15.26 29.32-15.26L29.32-15.26 17.4-15.26 17.09-16.28ZM6.47-25.45L6.47-8.44 8.96-8.44 8.96-25.45 6.47-25.45ZM20.14-31.04L20.14-31.04 26.68-29.04Q26.4-28.3 25.28-28.3L25.28-28.3Q26.72-25.35 29.57-23.01 32.41-20.67 35.61-19.27L35.61-19.27 35.54-18.7Q32.87-16.95 32.48-14.1L32.48-14.1Q27.56-18.49 24.82-27.28L24.82-27.28Q21.06-18.35 13.5-13.92L13.5-13.92 13.5-5.98Q13.46-5.66 12.15-5.08 10.83-4.5 9.7-4.5L9.7-4.5 8.96-4.5 8.96-7.42 6.47-7.42 6.47-3.83Q6.47-3.41 5.29-2.81 4.11-2.21 2.78-2.21L2.78-2.21 2.04-2.21 2.04-28.37 6.61-26.47 8.61-26.47 10.72-28.79 14.98-25.45Q14.45-24.86 13.5-24.68L13.5-24.68 13.5-14.8Q15.79-17.96 17.58-22.24 19.37-26.51 20.14-31.04ZM44.82-16.66L44.82-16.66 51.33-13.82Q51.08-13.18 49.96-13.22L49.96-13.22Q45-4.39 37.34-0.46L37.34-0.46 37.09-0.81Q39.8-3.83 41.85-8.26 43.91-12.69 44.82-16.66ZM52.21-2.88L52.21-2.88 52.21-20.67 58.75-20.11Q58.71-19.3 57.52-19.16L57.52-19.16 57.52-2.57Q57.52-1.13 57.29-0.21 57.06 0.7 56.37 1.51 55.69 2.32 54.33 2.76 52.98 3.2 50.8 3.41L50.8 3.41Q50.59 0.74 49.71-0.32L49.71-0.32Q48.66-1.65 46.05-2.11L46.05-2.11 46.05-2.57Q50.55-2.32 51.43-2.32L51.43-2.32Q52.21-2.32 52.21-2.88ZM59.13-15.68L59.13-15.68 59.52-15.93Q66.73-13.08 69.19-8.44L69.19-8.44Q70.77-5.52 69.82-3.34L69.82-3.34Q69.12-1.65 67.46-1.79L67.46-1.79Q66.45-1.86 65.39-2.71L65.39-2.71Q64.16-8.86 59.13-15.68ZM63.6-23.55L66.38-26.23 70.98-21.83Q70.59-21.38 69.54-21.34L69.54-21.34Q66.23-18.04 62.58-15.79L62.58-15.79 62.33-15.96Q63.35-19.44 63.88-22.54L63.88-22.54 47.32-22.54Q43.03-17.02 36.95-13.71L36.95-13.71 36.63-13.99Q39.06-17.16 41.4-21.74 43.73-26.33 45.04-30.94L45.04-30.94 52.1-28.09Q51.75-27.32 50.55-27.42L50.55-27.42Q49.32-25.24 48.06-23.55L48.06-23.55 63.6-23.55ZM74.21-30.16L74.21-30.16 74.5-30.34Q79.84-29.92 81.21-27.42L81.21-27.42Q82.09-25.88 81.04-24.54L81.04-24.54Q80.02-23.24 78.33-23.59L78.33-23.59Q77.59-23.77 76.92-24.22L76.92-24.22Q76.39-27.07 74.21-30.16ZM72.46-21.87L72.46-21.87 72.77-22.04Q77.84-21.66 79.03-19.27L79.03-19.27Q79.8-17.82 78.75-16.59L78.75-16.59Q77.7-15.33 76.01-15.82L76.01-15.82Q75.45-16 74.88-16.38L74.88-16.38Q74.46-19.23 72.46-21.87ZM82.65-25.77L82.65-25.77 83.18-25.66Q81-16.07 80.05-10.2L80.05-10.2Q79.63-7.52 79.66-6.5L79.66-6.5Q79.7-5.7 80.56-3.71 81.42-1.72 81.35 0.18L81.35 0.18Q81.28 1.62 80.33 2.53 79.38 3.45 77.91 3.45L77.91 3.45Q76.01 3.45 75.52 1.58L75.52 1.58Q76.11-1.27 76.04-3.69 75.97-6.12 75.3-6.54L75.3-6.54Q74.57-7.07 73.44-7.17L73.44-7.17 73.44-7.8 75.02-7.8Q75.34-7.8 75.48-7.84 75.62-7.88 75.78-8.05 75.94-8.23 76.11-8.61L76.11-8.61Q76.64-9.67 77.5-11.92 78.36-14.17 82.65-25.77ZM81.63 3.34L81.63 3.34 81.42 2.95Q83.81 1.37 85.9-1.09 88-3.55 89.05-5.77L89.05-5.77 94.61-2.5Q94.29-1.86 93.23-2.04L93.23-2.04Q88.88 1.79 81.63 3.34ZM95.66-4.85L95.66-4.85 95.91-5.1Q102.62-4.71 104.98-1.65L104.98-1.65Q106.35 0.14 105.57 1.79L105.57 1.79Q104.91 3.23 103.22 3.13L103.22 3.13Q102.59 3.09 101.88 2.78L101.88 2.78Q100.93 0.88 99.19-1.2 97.45-3.27 95.66-4.85ZM95.31-7.14L95.31-13.68 90.88-13.68 90.88-7.14 95.31-7.14ZM101.92-20.57L101.92-20.57 101.64-20.78Q101.64-22.04 101.57-24.43L101.57-24.43 87.4-24.43Q87.86-22.46 87.4-21.13L87.4-21.13 90.91-19.58Q95.73-21.62 98.68-23.63L98.68-23.63 103.36-19.02Q102.55-18.39 100.79-19.09L100.79-19.09Q96.19-18.39 90.88-18.28L90.88-18.28 90.88-14.7 98.68-14.7 101.07-18.04Q103.82-15.79 105.43-14.27L105.43-14.27Q105.26-13.68 104.45-13.68L104.45-13.68 100.13-13.68 100.13-7.14 100.55-7.14 102.83-10.69Q105.36-8.23 106.73-6.68L106.73-6.68Q106.63-6.12 105.79-6.12L105.79-6.12 81.7-6.12 81.42-7.14 85.85-7.14 85.85-19.48Q84.83-19.13 83.85-19.65 82.86-20.18 82.69-21.25 82.51-22.32 83.67-23.87L83.67-23.87Q85.71-24.64 85.96-27.49L85.96-27.49 86.38-27.49Q86.77-26.54 87.15-25.45L87.15-25.45 93.38-25.45Q92.95-25.66 92.71-25.88L92.71-25.88Q92.53-28.72 90.77-30.94L90.77-30.94 91.02-31.11Q96.12-30.97 97.35-28.69L97.35-28.69Q98.09-27.28 97-26.05L97-26.05Q96.64-25.7 96.22-25.45L96.22-25.45 101.11-25.45 103.46-27.84 107.58-23.94Q107.26-23.59 106.21-23.48L106.21-23.48Q103.71-21.55 101.92-20.57ZM124.14-7.21L124.14-7.21 124.28-6.93Q121.01-2.46 117.28 1.44L117.28 1.44Q117.07 2 116.65 2.57L116.65 2.57 111.69-1.83Q113.17-2.95 113.55-3.41 113.94-3.87 113.94-4.46L113.94-4.46 113.94-10.69 109.2-10.69 108.91-11.71 113.94-11.71 113.94-16.88 111.59-16.88 111.41-17.54Q110.04-16.1 109.27-15.54L109.27-15.54 108.98-15.79Q110.32-18.6 111.3-22.9 112.29-27.21 112.5-30.38L112.5-30.38 119.07-28.55Q118.9-27.74 117.67-27.63L117.67-27.63Q117.14-26.09 116.09-24.01L116.09-24.01 118.55-24.01 120.66-27Q123.12-24.96 124.56-23.59L124.56-23.59Q124.38-22.99 123.54-22.99L123.54-22.99 115.52-22.99Q113.77-20 111.8-17.89L111.8-17.89 117.81-17.89 119.95-20.95Q122.41-18.88 123.82-17.47L123.82-17.47Q123.64-16.88 122.84-16.88L122.84-16.88 118.83-16.88 118.83-11.71 119.21-11.71 121.36-14.77Q123.75-12.69 125.12-11.29L125.12-11.29Q124.95-10.69 124.17-10.69L124.17-10.69 118.83-10.69 118.83-4.75Q119.21-4.92 121.15-5.8 123.08-6.68 124.14-7.21ZM136.3-12.69L136.3-12.69 136.41-12.38Q133.21-8.96 127.76-4.57L127.76-4.57Q127.58-3.69 126.91-3.48L126.91-3.48 123.61-8.65Q127.65-9.7 136.3-12.69ZM136.86-23.84L139.5-26.51 143.75-22.68Q143.26-22.11 142.1-21.97L142.1-21.97Q141.82-10.3 141.13-5.27 140.45-0.25 138.83 1.34L138.83 1.34Q136.83 3.34 133.17 3.34L133.17 3.34Q133.17 0.84 132.36-0.11L132.36-0.11Q131.45-1.3 128.74-1.9L128.74-1.9 128.74-2.36Q132.4-2.04 133.59-2.04L133.59-2.04Q134.44-2.04 135-2.57L135-2.57Q136.02-3.45 136.53-8.26 137.04-13.08 137.29-22.82L137.29-22.82 129.45-22.82Q128.74-21.48 127.76-19.9L127.76-19.9Q133.1-19.37 134.65-16.73L134.65-16.73Q135.6-15.12 134.65-13.75L134.65-13.75Q133.7-12.45 132.05-12.87L132.05-12.87Q131.52-13.01 131.03-13.29L131.03-13.29Q130.11-16.17 127.41-19.37L127.41-19.37Q125.58-16.7 123.57-14.94L123.57-14.94 123.15-15.19Q125.72-21.27 126.63-30.73L126.63-30.73 133.21-29.46Q133.07-28.65 131.87-28.55L131.87-28.55Q131.1-26.23 129.97-23.84L129.97-23.84 136.86-23.84ZM150.93-30.83L150.93-30.83 156.55-27.49Q156.23-26.86 155.14-27.04L155.14-27.04Q150.43-22.18 144.98-19.58L144.98-19.58 144.67-19.9Q146.5-22.11 148.25-25.26 150.01-28.41 150.93-30.83ZM162.88-15.29L162.88-21.27 161.33-21.27 161.33-15.29 162.88-15.29ZM172.79-15.29L172.79-21.27 171.25-21.27 171.25-15.29 172.79-15.29ZM167.87-15.29L167.87-21.27 166.32-21.27 166.32-15.29 167.87-15.29ZM153.56-16.07L153.56-16.07 155.18-15.43Q154.93-14.91 154.09-14.77L154.09-14.77 154.09 1.72Q154.05 2.14 152.74 2.78 151.42 3.41 149.98 3.41L149.98 3.41 149.03 3.41 149.03-11.07Q146.99-9.28 144.98-7.95L144.98-7.95 144.67-8.23Q146.71-11.25 148.48-15.47 150.26-19.69 151.1-23.1L151.1-23.1 156.73-20.43 156.73-24.15 161.68-22.29 163.69-22.29Q163.72-22.71 163.78-23.7 163.83-24.68 163.86-25.03L163.86-25.03 155.92-25.03 155.64-26.02 163.93-26.02Q164.07-28.93 164.11-30.45L164.11-30.45 170.65-29.81Q170.54-28.86 169.24-28.65L169.24-28.65Q169.14-28.05 168.68-26.02L168.68-26.02 171.67-26.02 174.23-29.18Q177.12-27.07 178.88-25.59L178.88-25.59Q178.73-25.03 177.86-25.03L177.86-25.03 168.47-25.03Q168.22-23.77 167.87-22.29L167.87-22.29 172.69-22.29 174.87-24.71 178.98-21.66Q178.66-21.16 177.61-20.99L177.61-20.99 177.61-14.27Q177.61-13.99 176.31-13.68L176.31-13.68Q176.87-13.29 179.4-11.43L179.4-11.43Q179.23-10.83 178.35-10.83L178.35-10.83 155.46-10.83 155.14-11.85 172.41-11.85 173.74-13.39 172.79-13.39 172.79-14.31 161.33-14.31 161.33-13.75Q161.33-13.57 160.91-13.34 160.49-13.11 159.57-12.92 158.66-12.73 157.57-12.73L157.57-12.73 156.73-12.73 156.73-19.55Q156.55-19.48 155.99-19.48L155.99-19.48Q155.25-18.28 153.56-16.07ZM158.73-7.8L158.73-7.8 159.19-7.77Q161.12-2.25 159.01 0.14L159.01 0.14Q158.34 0.95 156.94 0.72 155.53 0.49 155.04-0.67L155.04-0.67Q154.23-2.78 156.41-4.15L156.41-4.15Q157.25-4.75 158.01-5.82 158.77-6.89 158.73-7.8ZM171.88-4.64L172.27-4.64 172.37-1.51Q173.18-1.2 173.44-0.79 173.71-0.39 173.71 0.28L173.71 0.28Q173.71 1.62 172.28 2.25 170.86 2.88 167.52 2.88L167.52 2.88 164.92 2.88Q162.46 2.88 161.72 2.14 160.98 1.41 160.98-0.77L160.98-0.77 160.98-8.72 165.13-8.4Q164.25-9.63 163.27-10.48L163.27-10.48 163.51-10.69Q168.79-10.79 170.37-8.44L170.37-8.44Q171.35-7.03 170.51-5.66L170.51-5.66Q169.66-4.32 168.05-4.57L168.05-4.57Q167.45-4.64 166.82-4.99L166.82-4.99Q166.54-6.12 165.8-7.45L165.8-7.45Q165.59-7.38 165.48-7.38L165.48-7.38 165.48-1.79Q165.48-1.48 165.64-1.37 165.8-1.27 166.29-1.27L166.29-1.27 169.59-1.27Q170.19-1.34 170.44-1.62L170.44-1.62Q170.96-2.29 171.88-4.64L171.88-4.64ZM171.88-7.91L171.88-7.91 172.2-8.09Q177.54-6.79 178.91-3.69L178.91-3.69Q179.79-1.76 178.7-0.28L178.7-0.28Q177.71 1.09 176.1 0.63L176.1 0.63Q175.36 0.46 174.69-0.14L174.69-0.14Q174.66-2.14 173.87-4.24 173.07-6.33 171.88-7.91Z" transform="translate(-2.0399999618530273, 31.110000610351562)"></path></g> <!----> <!----> <!----> <!----> <!----> <!----> <!----></g></g> <g data-gra="path-slogan" fill-rule="" class="tp-slogan iconsvg-slogansvg" fill="#333" transform="translate(45.275001525878906,40.560001373291016)"><!----> <!----> <g transform="scale(1, 1)"><g transform="scale(1)"><path d="M2.06-5.06L6.56-5.06L6.56-8.58L7.73-8.58L7.73 0L6.56 0L6.56-3.98L2.06-3.98L2.06 0L0.89 0L0.89-8.58L2.06-8.58L2.06-5.06ZM15.19 0L14.34-2.48L10.88-2.48L9.98 0L8.81 0L12.05-8.58L13.36-8.58L16.45 0L15.19 0ZM12.61-7.31L11.25-3.52L13.92-3.52L12.66-7.31L12.61-7.31ZM21.61-3.70L18.80-3.70L18.80 0L17.63 0L17.63-8.58L21.61-8.58Q24.47-8.58 24.47-6.28L24.47-6.28Q24.47-4.88 23.25-4.22L23.25-4.22Q24.28-3.94 24.28-2.58L24.28-2.58L24.38-1.03Q24.33-0.38 24.80-0.19L24.80-0.19L24.80 0L23.34 0Q23.20-0.61 23.16-2.16L23.16-2.16Q23.20-3.70 21.61-3.70L21.61-3.70ZM21.70-7.64L18.80-7.64L18.80-4.69L21.52-4.69Q23.25-4.69 23.25-6.19L23.25-6.19Q23.25-7.64 21.70-7.64L21.70-7.64ZM29.34-7.64L27.28-7.64L27.28-4.97L29.34-4.97Q31.17-4.92 31.13-6.38L31.13-6.38Q31.13-7.64 29.34-7.64L29.34-7.64ZM29.81 0L26.11 0L26.11-8.58L29.91-8.58Q32.20-8.48 32.30-6.42L32.30-6.42Q32.30-5.16 31.17-4.64L31.17-4.64Q32.77-4.08 32.77-2.53L32.77-2.53Q32.63-0.09 29.81 0L29.81 0ZM29.53-3.98L27.28-3.98L27.28-0.98L29.77-0.98Q31.55-1.03 31.59-2.53L31.59-2.53Q31.59-3.98 29.53-3.98L29.53-3.98ZM34.27-8.58L35.44-8.58L35.44 0L34.27 0L34.27-8.58ZM38.81-8.58L43.13-1.64L43.13-8.58L44.25-8.58L44.25 0L42.94 0L38.58-6.94L38.53-6.94L38.53 0L37.41 0L37.41-8.58L38.81-8.58ZM48.66-1.92L48.66-2.77L49.73-2.77L49.73-2.16Q49.73-0.75 51.05-0.75L51.05-0.75Q52.41-0.75 52.41-2.25L52.41-2.25L52.41-8.58L53.58-8.58L53.58-2.30Q53.53 0.09 51.09 0.14L51.09 0.14Q48.80 0.09 48.66-1.92L48.66-1.92ZM61.03-3.19L61.03-8.58L62.20-8.58L62.20-3.05Q62.06 0.05 58.69 0.14L58.69 0.14Q55.55 0.05 55.41-2.86L55.41-2.86L55.41-8.58L56.58-8.58L56.58-3.19Q56.63-0.84 58.73-0.80L58.73-0.80Q61.03-0.84 61.03-3.19L61.03-3.19ZM65.39-8.58L69.70-1.64L69.70-8.58L70.83-8.58L70.83 0L69.52 0L65.16-6.94L65.11-6.94L65.11 0L63.98 0L63.98-8.58L65.39-8.58ZM76.13 0L72.66 0L72.66-8.58L76.17-8.58Q79.64-8.39 79.78-4.41L79.78-4.41Q79.59-0.09 76.13 0L76.13 0ZM75.98-7.64L73.83-7.64L73.83-0.98L76.08-0.98Q78.52-1.13 78.61-4.31L78.61-4.31Q78.56-7.55 75.98-7.64L75.98-7.64ZM82.55-1.03L87.70-1.03L87.70 0L81.38 0L81.38-8.58L87.61-8.58L87.61-7.59L82.55-7.59L82.55-4.92L87.23-4.92L87.23-3.89L82.55-3.89L82.55-1.03Z" transform="translate(-0.890625, 8.578125)"></path></g></g></g></g></g><defs v-gra="od"></defs></svg>